<?xml version="1.0" standalone="no"?>
<!DOCTYPE svg PUBLIC "-//W3C//DTD SVG 20010904//EN"
 "http://www.w3.org/TR/2001/REC-SVG-20010904/DTD/svg10.dtd">
<svg version="1.0" xmlns="http://www.w3.org/2000/svg"
 width="200.000000pt" height="200.000000pt" viewBox="0 0 200.000000 200.000000"
 preserveAspectRatio="xMidYMid meet">

<g transform="translate(0.000000,200.000000) scale(0.100000,-0.100000)"
fill="#00000" stroke="none"> <!--farbe ändern-->
<path d="M868 1338 l-3 -203 -62 -5 -63 -5 128 -192 c70 -106 129 -193 132
-193 3 0 62 87 132 193 l128 192 -63 5 -62 5 -3 203 -2 202 -130 0 -130 0 -2
-202z"/>
<path d="M460 660 l0 -200 540 0 540 0 0 200 0 200 -65 0 -64 0 -3 -132 -3
-133 -405 0 -405 0 -3 133 -3 132 -64 0 -65 0 0 -200z"/>
</g>
</svg>
